<svg version="1.1" xmlns="http://www.w3.org/2000/svg" viewBox="0 0 537.5963439941406 323.7197570800781" width="537.5963439941406" height="323.7197570800781">
  <!-- svg-source:excalidraw -->
  
  <defs>
    <style>
      @font-face {
        font-family: "Virgil";
        src: url("https://unpkg.com/@excalidraw/excalidraw@0.12.0-e9067de/dist/excalidraw-assets/Virgil.woff2");
      }
      @font-face {
        font-family: "Cascadia";
        src: url("https://unpkg.com/@excalidraw/excalidraw@0.12.0-e9067de/dist/excalidraw-assets/Cascadia.woff2");
      }
    </style>
  </defs>
  <rect x="0" y="0" width="537.5963439941406" height="323.7197570800781" fill="#ffffff"></rect><g transform="translate(378.6614990234375 148.02413940429688) rotate(0 58 11.5)"><text x="0" y="18" font-family="Helvetica, Segoe UI Emoji" font-size="20px" fill="#000000" text-anchor="start" style="white-space: pre;" direction="ltr">what matters</text></g><g stroke-linecap="round" transform="translate(215.32418823242188 10) rotate(0 156.13607788085938 151.44369506835938)"><path d="M35.7 54.89 C35.7 54.89, 35.7 54.89, 35.7 54.89 M35.7 54.89 C35.7 54.89, 35.7 54.89, 35.7 54.89 M23.7 76.47 C33.93 60.84, 46.67 44.42, 54.79 38.98 M22.72 76.32 C31.55 64.89, 41.1 54.58, 56.22 37.03 M10.77 97.91 C29.08 73.1, 47.86 52.26, 71.89 24.99 M10.18 96.78 C33.91 71.34, 56.7 44.05, 73.05 23.72 M7.7 102.8 C28.24 84.49, 42.58 62.56, 81.97 18.74 M9.62 103.54 C28.98 81.09, 47.45 58.55, 81.39 20.71 M8.45 111.9 C32.27 84.85, 54.19 57.02, 91.68 18.57 M7.55 111.26 C24.08 92.63, 40.55 71.04, 90.38 17.3 M5.38 121.1 C39.69 78.8, 75.04 39.93, 98.24 11.14 M4.82 119.41 C44.8 77.36, 81.27 33.71, 98.27 13.65 M5.18 126.05 C39.92 86.45, 80.57 41.53, 108.55 10.95 M3.34 127.54 C32.75 95.08, 61.48 61.46, 107.32 10.03 M1.31 136.72 C46.81 81.75, 95.84 30.13, 115.47 6.09 M2.42 135.56 C34.61 98.32, 68.14 59.62, 116.97 5.24 M1.09 141.19 C32.62 105.49, 61.7 74.2, 123.82 4.92 M0.69 142.15 C45.85 91.98, 90.88 40.18, 121.64 4.87 M1.5 149.03 C44.28 103.11, 85.77 52.51, 129.15 5.75 M1.71 147.74 C29.84 117.92, 58.11 85.48, 128.41 3.69 M1.68 154.07 C34.93 114.07, 68.11 78.38, 133.17 2.55 M1.41 154.06 C28.85 121.25, 57.49 89.97, 134.1 2.98 M2.41 160.98 C31.63 126.2, 60.26 95.42, 138.02 4.4 M3.07 160.33 C54.92 100, 108.39 38.57, 138.89 3.01 M4.24 163.66 C55.01 101.8, 111.95 40.8, 146.19 3.69 M3.29 165.7 C35.23 128.74, 66.19 92.8, 145.61 1.83 M5.21 172.16 C40.63 124.31, 78.99 82.41, 149.22 2.67 M3.86 170.33 C61.54 105.33, 119.93 38.75, 150.6 1.56 M3.54 176.97 C48.86 126, 91.2 75.95, 156.58 0.46 M4.39 175.46 C61.72 111.9, 118.06 47.59, 156.9 0.74 M5.51 182.27 C57.34 116.69, 115.64 53.18, 163.71 -0.02 M5.3 181.37 C59.93 115.58, 117.45 49.92, 162.26 0.25 M4.46 188.19 C50.97 134.99, 94.94 82.96, 166.48 -0.32 M6.05 187.73 C54.84 131.81, 103.94 74.69, 167.77 1.36 M5.42 192.43 C58.33 134.87, 107.62 74.82, 171.57 2.12 M6.14 193.09 C44.53 147.94, 83.55 102.08, 171.02 1.61 M9.66 194.78 C63.94 130.85, 116.61 69.12, 177.58 2.25 M8.74 194.99 C48.95 147.76, 90.39 100.83, 176.79 2.47 M9.44 198.87 C47.08 157.13, 84.27 116.1, 179.99 4.88 M10.08 199.62 C57.95 145.44, 105.64 90.94, 181.14 2.87 M11.3 203.4 C58.98 149.47, 106.69 96.32, 185.46 6.3 M12.3 203.79 C57.11 150.02, 105.1 96.69, 185.92 4.9 M13.78 208.01 C70.67 144.29, 124.18 79.04, 188.88 6.45 M13.91 208.61 C76.45 134.12, 139.71 61.38, 189.22 5.51 M16.5 212.92 C82.3 135.36, 149.81 59.37, 194.09 6.68 M14.76 211.72 C56.43 167.18, 96.11 121.41, 194.77 6.85 M17.36 217.84 C74.96 151.44, 134.14 83.14, 198.03 6.18 M17.65 216.87 C69.21 158.63, 119.15 101.64, 198.35 6.89 M17.58 219.33 C93.46 135.6, 166.27 52.53, 204.33 8.79 M18.57 220.84 C59.32 173.89, 98.63 127.78, 202.95 9.15 M22.51 224.28 C73.61 161.6, 126.99 103.08, 207.24 11.02 M21.43 223.75 C65.76 172.4, 109.94 122.4, 207.76 9.54 M22.62 228.8 C85.88 157.53, 145.71 86.47, 211.63 8.76 M22.59 228.33 C86.65 153.86, 150.74 80.41, 212.86 10.48 M24.57 231.83 C82.9 163.82, 142.37 93.89, 216.23 10.49 M23.57 233.28 C95.19 153.34, 167.09 70.88, 216.84 11.86 M27.02 236.82 C73.39 182.96, 118.47 129.08, 219.33 14.94 M27.14 235.75 C91.37 161.94, 155.09 87.78, 219.31 14.2 M28.19 238.87 C89.22 173.44, 145.77 106.39, 221.65 16.99 M29.82 239 C71.82 188.56, 114.61 140.01, 222.83 15.85 M33.81 241.42 C80.38 187.98, 124.71 136.5, 226.97 18.49 M31.94 241.33 C94.69 171, 156.54 99.46, 226.05 17.69 M36.04 244.81 C106.63 166.09, 177.49 84.48, 231.68 19.7 M34.25 245.17 C83.51 186.95, 131.25 131.86, 230.23 19.46 M38.4 246.67 C96.73 176.79, 155.79 110.08, 233.47 21.96 M38.22 247.58 C91.02 182.73, 146.15 120.11, 234.38 22.24 M39.55 249.09 C117.77 162.92, 195.22 73.29, 238.21 25.87 M40.17 250.13 C106.52 174.45, 173.13 98.19, 237.03 24.15 M43 253.75 C95.6 194.76, 145.63 138.84, 239.46 27.27 M43.04 253.05 C115.03 172.12, 187.43 89.15, 240.52 26.35 M47.62 255.76 C117.87 174.33, 188.37 95.06, 245.63 28.02 M46.76 256.13 C101.53 191.18, 158.68 126.44, 245.03 28.15 M48.47 260.25 C90.62 212.72, 132.8 164.04, 247.78 29.03 M49.7 258.22 C126.28 170.58, 203.48 83.4, 248.56 30.04 M50.79 261.56 C119.18 184.51, 187.86 105.14, 252.92 31.36 M52.29 262.51 C109.69 195.26, 170.24 126.45, 251.55 32.41 M53.23 264.71 C109.58 202.78, 166.89 136.86, 254.5 35.96 M54.09 264.86 C121.45 188.34, 189.3 111.49, 254.94 35 M58.87 268.46 C119.87 193.7, 183.45 120.74, 257.16 35.31 M57.33 267.3 C119.18 195.17, 181.32 122.71, 257.98 36.22 M59.29 268.61 C120.51 199.85, 182.99 131.83, 260.84 37.88 M60.26 270.03 C115.25 209.93, 167.98 148.74, 261.04 38.62 M63.16 272.09 C105.33 225.95, 144.84 176.91, 263.61 43.78 M64.04 272.35 C117.69 208.73, 172.39 145.31, 263.23 42.27 M66.87 273.54 C131.47 203.31, 192.17 131.42, 267.75 43.68 M66.99 274.24 C144.77 184.81, 222.53 95.66, 267.01 45.02 M70.2 276.77 C148.5 187.78, 224.24 99.79, 268.91 49.86 M71.57 275.9 C121.06 219.42, 171.01 163.25, 269.32 47.81 M74.3 278.36 C126.7 219.5, 179.45 158.83, 273.27 51.39 M74.2 277.77 C151.67 188.74, 231.17 98.6, 272.84 51.81 M77.75 279.83 C116.95 234.82, 156.46 190.44, 273.69 55.46 M77.26 280.83 C142.26 209.24, 205.03 137.4, 274.45 55.03 M80.99 282.06 C139.75 213.3, 200.77 144.89, 278.68 57 M80.95 282.9 C150.09 205.66, 216.82 128.68, 277.93 56.75 M85.61 285.91 C131.94 228.53, 176.49 174.67, 279.59 59.72 M85.46 284.91 C140.97 221.1, 196.4 156.49, 279.44 60.02 M89.32 287.32 C144.21 221.78, 200.16 156.09, 282.63 63.19 M87.94 287.95 C156.24 210.63, 223.43 133.27, 283.23 62.87 M91.17 288.8 C141.67 231.59, 192.67 175.78, 284.82 66.31 M92.09 289.79 C163.47 207.36, 233.11 126.85, 285.56 66.7 M95.3 289.59 C152.52 224.62, 211.07 156.62, 288.42 69.08 M94.81 291.71 C153.34 226, 210.05 159.91, 289.01 68.92 M99.16 293.42 C151 235.69, 200.47 175.48, 291.54 73.14 M99.42 292.73 C153.9 230.36, 208.8 166.82, 290.79 72.86 M102.83 295.59 C162.52 228.56, 223.65 160.32, 293.06 75.39 M101.91 294.97 C167.48 220.45, 233.49 144.15, 293.47 75.23 M107.35 295.19 C149.04 244.5, 196.08 193.82, 294.15 81.2 M106.99 296.36 C146.21 250.37, 184.91 206.92, 295.21 79.75 M110.99 296.46 C168.4 233.42, 222.2 167.1, 295.26 85.25 M111.61 296.76 C150.18 251.83, 190.02 204.87, 297.09 83.8 M115.18 297.85 C186.13 216.63, 259.06 134.62, 299.03 89.31 M115.13 297.43 C186.11 215.79, 257.43 134, 297.53 87.62 M119.94 299.25 C186.08 221.66, 253.91 142.28, 299 91.26 M120.06 298.16 C175.9 237.36, 230.99 174.97, 299.33 92.22 M125.44 300.05 C177.49 239.18, 234.22 174.43, 303.69 97.18 M125.82 299.68 C181.68 232.46, 239.86 164.84, 302.12 96.54 M128.34 301.25 C166.57 256.48, 206.43 209.94, 303.34 101.5 M128.85 299.98 C190.01 228.87, 252.69 156.74, 304.49 100.52 M135.99 300.41 C176.4 253.5, 217.38 203.95, 306.98 104.58 M135.01 301.58 C173.35 257.24, 209.68 214.15, 305.84 104.7 M137.84 300.58 C179.84 254.26, 223.99 203.13, 308.73 108.57 M138.17 302.08 C172.17 261.99, 205.22 223.63, 307.14 108.74 M141.57 304.84 C206.57 230.42, 273.17 153.07, 308.59 114.61 M143.35 304.07 C189.6 248.82, 235.59 195.53, 308.82 112.3 M147.59 302.64 C193.55 250.21, 241.19 196.93, 307.86 120.12 M148.27 304 C182.9 259.36, 219.73 216.68, 309.03 118.62 M155.08 301.9 C188.36 263.99, 220.29 226.67, 307.91 125.67 M154.09 302.76 C192.49 257.53, 232.9 212.09, 309.54 124.12 M160.54 303.63 C197.81 258.44, 237.33 216.75, 309.23 128.8 M160.07 303.55 C203.77 252.03, 249.97 199.43, 309.78 129.86 M166.93 301.2 C209.35 248.29, 252.52 199.49, 310.63 137.3 M165.61 301.33 C208.1 254.87, 250.35 206.22, 310.22 135.21 M172.38 301.77 C208.25 258.19, 247.83 213.78, 309.59 140.59 M171.59 301.15 C202.9 262.64, 236.3 225.17, 310.89 141.46 M177.86 299.95 C227.09 243.52, 276.19 185.75, 312.06 147.35 M177.63 300.17 C213.29 259.78, 249.56 217.2, 311.43 146.89 M183.3 302.43 C236.64 241.81, 287.58 181.77, 312.85 152.58 M182.16 300.39 C227.52 250.15, 270.71 198.7, 312.24 151.65 M188.24 300.12 C216.62 266.82, 244.18 236.98, 311.58 157.79 M189.13 299.22 C220.92 262.05, 253.59 223.51, 312.3 158.12 M196.82 296.92 C227.88 261.51, 259.59 228.17, 312.55 161.98 M195.83 297.55 C223.43 261.83, 255.08 228.73, 313.14 162.09 M204.57 294.94 C242.37 250.13, 280.03 203.84, 310.76 169.91 M203.56 294.49 C236.38 256.12, 269.04 219.85, 312.27 170.06 M212.88 290.41 C232.97 266.35, 257.59 238.9, 310.26 179.51 M212.94 289.89 C244.06 254.02, 273.54 218.07, 309.3 178.27 M221.44 288.24 C238.25 266.26, 258.44 245.86, 309.4 184.98 M220.21 286.66 C253.24 247.59, 286.66 209.29, 308.02 186.45 M229.36 284.14 C250.16 259.3, 268.33 239.54, 306.53 193.34 M229.15 285.4 C244.03 263.51, 262.05 243.5, 305.96 194.02 M238.26 280.09 C257.16 257.19, 276.85 234.99, 306.47 201.49 M236.02 281.66 C254.98 260.37, 272.65 240.8, 305.7 201.82 M243.46 281.27 C256.17 264.21, 269.48 248.79, 304.94 210.28 M241.63 281.46 C262.45 258.63, 282.5 234.66, 305.12 209.84 M263.29 261.37 C269.34 253.67, 278.92 244.26, 288.55 230.19 M262.46 262.25 C271.64 253.59, 279.26 244.76, 290.3 231.51" stroke="#228be6" stroke-width="0.5" fill="none"></path><path d="M115.99 4.71 C130.39 -1.34, 150.04 -0.53, 166.21 0.28 C182.39 1.08, 198.02 3.9, 213.03 9.56 C228.03 15.21, 243.72 24.14, 256.25 34.18 C268.77 44.22, 279.52 56.72, 288.16 69.79 C296.81 82.87, 304.15 97.4, 308.11 112.63 C312.07 127.87, 312.9 145.47, 311.93 161.2 C310.97 176.93, 308.3 192.48, 302.31 207.03 C296.32 221.57, 286.41 236.4, 275.99 248.48 C265.58 260.56, 253.21 271.36, 239.82 279.53 C226.43 287.7, 211.26 293.8, 195.66 297.5 C180.06 301.2, 162.21 302.46, 146.23 301.7 C130.25 300.95, 114.51 298.59, 99.77 292.98 C85.04 287.37, 70.48 278.09, 57.82 268.07 C45.16 258.04, 32.63 245.78, 23.81 232.86 C15 219.93, 8.75 205.58, 4.93 190.51 C1.1 175.45, 0.04 158.16, 0.86 142.46 C1.68 126.77, 4.04 110.94, 9.85 96.34 C15.66 81.73, 25.33 66.96, 35.73 54.85 C46.13 42.75, 57.11 32.46, 72.25 23.72 C87.38 14.97, 115.72 5.51, 126.53 2.38 C137.35 -0.75, 136.75 2.48, 137.14 4.93 M222.19 14 C237.16 17.83, 248.76 30.04, 260.35 40.35 C271.94 50.65, 283.84 62.15, 291.73 75.81 C299.62 89.46, 304.26 106.79, 307.71 122.27 C311.16 137.74, 313.8 153.35, 312.4 168.65 C311.01 183.95, 306.16 199.93, 299.33 214.09 C292.51 228.25, 282.58 242.07, 271.45 253.61 C260.31 265.14, 246.28 275.4, 232.53 283.28 C218.79 291.15, 204.75 297.77, 188.97 300.86 C173.19 303.95, 153.91 303.84, 137.86 301.8 C121.8 299.76, 107.27 294.98, 92.64 288.64 C78.01 282.29, 62.38 274.1, 50.09 263.74 C37.81 253.37, 26.97 240.31, 18.95 226.44 C10.92 212.57, 5.01 195.91, 1.96 180.5 C-1.08 165.1, -1.11 149.32, 0.7 134.02 C2.51 118.72, 6.25 102.93, 12.82 88.7 C19.39 74.48, 28.9 60.33, 40.13 48.67 C51.36 37.02, 65.95 26.15, 80.19 18.76 C94.44 11.38, 109.99 7.34, 125.6 4.35 C141.21 1.37, 157.98 -0.88, 173.86 0.85 C189.73 2.59, 213.2 12.39, 220.86 14.74 C228.51 17.1, 221.06 12.82, 219.78 14.98" stroke="#000000" stroke-width="1" fill="none"></path></g><g stroke-linecap="round" transform="translate(10 10.832366943359375) rotate(0 156.13607788085938 151.44369506835938)"><path d="M28.86 63.52 C28.86 63.52, 28.86 63.52, 28.86 63.52 M28.86 63.52 C28.86 63.52, 28.86 63.52, 28.86 63.52 M19.4 78.4 C30.43 63.55, 42.17 53.85, 62.76 30.51 M20.89 78.22 C35.91 61.41, 50.02 44.71, 63.34 30.78 M13.54 92.54 C32.62 70.69, 49.7 50.6, 74.21 23.35 M13.06 95.22 C29.61 74.91, 45.76 55.68, 72.39 24.86 M8.77 108.15 C34.96 73.63, 66.38 38.48, 82.09 21.97 M7.94 106.44 C22.47 88.04, 40.4 68.23, 82.37 19.67 M7.45 113 C23.46 91.32, 43.92 73.62, 90.26 14.82 M5.86 114.96 C38.64 74.86, 74.14 37.01, 92.8 14.73 M4.61 119.28 C33.35 87.62, 60.19 55.27, 103.69 8.25 M6.21 121.98 C42.14 80.5, 77.48 39.89, 102.36 11.09 M3.5 129.36 C27.32 103.97, 48.64 80.79, 107.68 10.94 M4.93 128.15 C26.39 104.2, 48.03 80.3, 108.96 8.27 M1.45 133.61 C40.45 93.87, 72.27 56.89, 114.1 9.07 M3.19 136.13 C37.22 97.17, 71.29 58.87, 113.8 7.21 M2.33 140.98 C46.64 93.55, 94.99 40.23, 121.36 6.99 M1.67 142.75 C34.47 107.29, 66.11 71.77, 120.19 7.53 M2.95 151.54 C42.21 103.6, 80.32 62.78, 124.71 6.99 M1.81 150.28 C28.11 121.53, 54.38 91.03, 125.73 7 M3.49 152.81 C53.62 98.64, 101.11 40.8, 130.77 6.36 M2.12 154.34 C52.04 100.78, 99.95 45.08, 131.63 5.23 M4.01 159.13 C48.87 109.23, 92.18 57.42, 139.76 5.65 M3.51 159.9 C35.36 122.1, 67.05 85.18, 138.92 5.58 M2.49 164.12 C44.67 120.45, 84.57 75.68, 143.03 3.43 M4.68 165.61 C61.52 99.49, 117.46 34.56, 144.14 4.42 M4.58 168.47 C53.66 111.98, 102.89 54.45, 152.39 2.29 M4.75 170.12 C37.34 133.95, 68.57 97.41, 150.61 1.7 M5.59 175.55 C59.36 112.69, 113.15 51.51, 158.21 -0.17 M5.53 175.49 C48.81 127.45, 91.14 78.38, 157.51 2.12 M4.97 179.31 C55.62 123.6, 103.91 68.52, 163.11 3.28 M5.85 180.5 C56.34 122.73, 107.47 63.84, 161.9 2.18 M8.59 185.4 C55.14 130.65, 102.27 74.54, 166.48 2.57 M7.42 186.14 C45.13 140.01, 85.72 94.42, 166.45 2.92 M9.29 192.36 C59.58 132.02, 110.82 73.67, 170.36 4.23 M7.81 191.06 C45.08 146.37, 82.24 103.65, 171.59 3.02 M9.38 195.12 C71.61 122.09, 139.81 46.17, 175.49 4.76 M9.31 196.14 C68.52 129.86, 127.81 60.66, 175.68 2.88 M7.98 200.41 C49.34 156.49, 89.48 111.67, 180.34 3.93 M8.82 202.4 C68.05 135.71, 126.96 67.04, 180.45 4.19 M10.43 205.64 C73.49 136.24, 134.47 67.12, 185.19 5.88 M10.47 206.22 C74.52 134.27, 137.37 61.37, 185.84 5.38 M14.78 209.63 C59.53 154.59, 107.69 100.72, 191.6 6.61 M14.21 208.63 C76.94 135.37, 138.61 63.35, 191.22 4.78 M14.33 212.36 C62.64 156.68, 110.07 102.33, 193.77 5 M15.03 213.17 C63.3 160.27, 110.06 107.79, 195.17 7.23 M18.35 217.79 C58.22 170.2, 95.06 123.89, 199.6 5.47 M18.13 216.8 C76.79 147.86, 135.25 78.31, 200.74 6.26 M19.08 220.17 C72.54 162.08, 127.07 101.16, 203.7 7.37 M19.89 220.85 C84.95 145.41, 149.57 71.58, 204.82 6.73 M20.67 223.16 C92.51 141.55, 163.87 59.8, 207.67 8.74 M21.84 224.35 C92.93 143.31, 163.7 60.91, 208.86 9.49 M24.87 229.35 C79.04 164.54, 135.05 97.35, 212.89 12.02 M24.07 228.65 C91.63 151.64, 157.83 74.97, 212.42 11.74 M26.11 231.7 C80.54 167.93, 136.47 103.37, 217.03 12.34 M25.4 232.37 C66.74 185.6, 105.87 140.79, 215.57 13.2 M27.73 236.62 C77.26 176.44, 129.91 117.38, 220.17 14.53 M27.42 236.09 C85.6 167.7, 144.76 100.12, 219.63 13.99 M30.92 240.29 C102.1 158.02, 170.45 78.27, 222.16 16.97 M30.09 238.7 C99.8 158, 169.41 76.89, 222.87 16.28 M32.91 242.62 C89.96 174.88, 150.39 105.7, 227.31 18.09 M31.33 243.61 C83.57 184.84, 134.57 125.42, 227.45 17.76 M34.65 246.78 C78.84 194.36, 124.15 142.68, 229.96 21.17 M35.25 245.41 C109.18 161.15, 183.4 75.07, 230.73 20.7 M37.48 247.98 C113.44 161.94, 191 71.68, 234.05 22.95 M36.97 248 C114.17 158.9, 192.18 70.46, 235.07 22.54 M40.74 252.12 C87.27 200.82, 133.44 149.9, 238.63 24.38 M39.96 251.29 C88.55 197.61, 136.26 142.68, 237.73 23.4 M43.68 252.82 C93.68 197, 143.55 138.44, 242.62 25.13 M43.11 254.39 C102 188.4, 158.71 122.65, 242.11 25.46 M47.25 255.2 C108.02 185.71, 169.77 114.65, 245.17 28.36 M46.16 256.48 C107.1 186.08, 168.82 115.29, 244.72 27.32 M48.61 260.23 C106.85 192.66, 163.1 126.79, 250.97 28.77 M49.81 258.45 C100.47 201.74, 151.42 142.5, 250 28.48 M51.6 262.27 C119.57 185.42, 186.64 110.07, 252.07 33.51 M52.38 262.28 C94.45 212.29, 136.5 163.06, 251.94 32.61 M55.46 265.43 C102.72 213.01, 145.35 164.22, 255.63 35.34 M55.73 264 C100.31 215.21, 142.53 166.37, 255.21 35.66 M59.49 266.58 C128.7 184.49, 196.24 103.47, 258.3 38.87 M59.03 267.58 C129.02 187.18, 198.56 106.44, 258.14 37.34 M60.43 268.82 C119.3 208.24, 173.49 142.39, 260.63 38.92 M61.78 269.16 C103.42 221.83, 144.29 174.79, 260.45 40.36 M65.94 273.15 C133.75 192.82, 202.21 116.45, 263.13 44.33 M64.79 272.45 C138.62 186.74, 212.85 100.7, 263.62 43.37 M68 275.31 C109.1 227.6, 153.76 177.22, 267.83 46.21 M66.8 275.12 C125.07 209.97, 182.89 144.13, 267.16 46.09 M71.32 276.92 C128.8 210.67, 186.4 146.28, 268.8 47.65 M70.18 277.5 C133.55 205.5, 197.51 130.79, 269.28 48.22 M73.11 279.61 C123.73 221.87, 174.67 166.02, 274 52.33 M73.71 279.4 C122.16 227.32, 169.22 174.1, 271.84 51.63 M78.29 280.15 C131.88 220.6, 184.39 159.98, 275.86 52.6 M78.19 281.54 C134.95 218.01, 190.45 153.8, 275.59 54.02 M80.9 282.56 C154.38 201.06, 225.6 120.07, 278.6 56.93 M82.36 282.78 C129.35 229.43, 176.7 174.89, 277.51 57.83 M86.41 283.91 C159.07 195.82, 235.45 109.35, 280.74 59.47 M85.26 285.47 C147.06 212.04, 209.39 139.88, 280.9 60.1 M88.55 287.95 C162.34 200.11, 239.38 112.08, 284.69 62.63 M89.48 286.78 C129.83 239.4, 170.8 192.05, 283.68 62.25 M92.32 287.07 C139.2 237.12, 184.15 183.97, 286.61 65.64 M93.85 287.66 C163.27 205.33, 233.97 124.75, 285.71 67.34 M97.05 290.88 C159.49 219.95, 221.44 148.43, 288 69.35 M96.93 290.14 C149.32 229.29, 202.08 169.96, 287.81 70.45 M102.04 292.42 C143.82 240.46, 188.78 191.55, 290.19 73.05 M100.46 292.2 C160.46 222.3, 220.89 153.58, 290.51 73.06 M104.21 293.94 C146.2 246.78, 185.98 198.37, 292.81 77.79 M103.92 293.94 C154.38 237.11, 205.25 179.08, 291.63 78.01 M106.66 294.57 C162.94 233.63, 214.35 174.12, 293.04 80.05 M107.68 294.71 C171.45 221.85, 235.3 148.86, 294.52 81.4 M112.39 299.13 C162.47 238.13, 214.84 179.57, 294.94 86.55 M111.05 298.64 C158.1 243.39, 207.09 188.11, 296.86 84.74 M114.78 298.77 C178.45 228.36, 239.28 159.76, 299.95 88.87 M115.6 298.85 C183.05 224.3, 248.74 147.31, 299.13 89.18 M120.57 300.3 C190.37 218.91, 257.55 139.97, 300.29 91.2 M120.63 298.81 C163.33 252.9, 202.42 206.69, 300.34 93.28 M124.64 300.64 C161.69 257.72, 198.53 218.1, 303.04 97.32 M126.12 299.71 C192.75 220.51, 259.99 143.92, 302.01 96.29 M129.25 301.13 C190.7 230.51, 249.34 165.14, 305.2 101.36 M130.24 300.47 C194.52 229.08, 256.85 158.68, 303.9 100.63 M136.2 301.83 C190.92 235.25, 249.75 169.96, 305.36 102.4 M136.16 300.38 C198.01 225.67, 261.85 153.8, 306.34 104.35 M139.94 301.79 C182.63 254.68, 223.98 209.18, 305.48 109.63 M140.43 300.66 C203.01 229.75, 265.73 158.58, 307.83 109.68 M144.9 302.77 C193.67 246.29, 238.08 196.86, 307.8 114.59 M146.17 300.81 C203.95 232.06, 262.29 164.71, 308.06 114.2 M148.56 303.21 C202.56 243.94, 254.53 183.53, 307.36 121.36 M149.13 301.9 C211.85 228.45, 275.87 156.53, 307.78 119.18 M155.82 302.12 C215.31 232.74, 274.67 164.31, 308.8 124.93 M154.38 302.97 C208.42 241.84, 261.68 179.91, 309.19 123.9 M158.09 303.32 C204.32 252.12, 249.26 196.78, 310.64 130.1 M158.81 304.74 C200.8 254.5, 242.34 205.72, 310.73 130.27 M165.38 301.56 C213.01 246.77, 265.71 188.86, 310.89 134.75 M165.34 303.12 C194.79 269.8, 224.08 235.67, 310.81 135.68 M171.18 301.36 C201.45 266.34, 229.49 232.17, 311 141.58 M171.29 300.86 C210.17 256.75, 249.92 212.03, 312.71 140.13 M177.45 300.27 C203.39 268.97, 232.41 239.55, 311.88 144.8 M177.11 301.99 C224.67 246.19, 272.6 192.09, 313.32 145.06 M185.53 301 C233.39 242.66, 280.96 188.18, 313.59 149.67 M183.83 300.73 C233.27 242.97, 282.78 187.19, 312.11 150.73 M189.63 298.16 C232.24 251, 274.82 200.83, 311.27 159.27 M190.14 299.01 C227.15 255.12, 265.89 211.91, 311.56 157.62 M195.73 297.37 C226.49 264.69, 254.83 228.7, 310.1 167.48 M194.61 298.06 C240.33 248.68, 283.04 197.39, 311.58 165.59 M201.85 298.14 C241.51 248.73, 281.47 203.55, 310.05 170.89 M201.02 296.68 C240.24 253.18, 278.63 209.83, 309.41 173.04 M206.59 296.77 C229.3 271.3, 249.49 249.95, 309.54 179.71 M208.71 296.16 C246.27 250.9, 286.07 205.73, 308.32 180.53 M216.75 292.95 C251.7 254.63, 285.44 212.36, 309.89 188.36 M217.08 291.43 C253.37 250.87, 288.9 210.24, 307.9 187 M227.96 285.36 C248.4 262.57, 272.85 232.43, 305.12 196.78 M225.98 286.34 C254.19 252.99, 281.96 220.77, 306.71 195.77 M236.33 282.15 C252.38 263.68, 271.65 241.85, 307.59 198.93 M236.29 282.82 C261.86 254.27, 287.22 223.96, 307.73 198.68 M248.8 272.78 C260.25 258.91, 275.57 244.23, 300.16 217.05 M250.07 274.36 C265.09 256.13, 280.85 238.47, 299.44 215.01" stroke="#fab005" stroke-width="0.5" fill="none"></path><path d="M155.42 0.01 C170.8 -2.65, 187.47 1.44, 202.85 6.07 C218.23 10.7, 234.48 18.63, 247.68 27.81 C260.88 37, 272.48 48.71, 282.04 61.17 C291.6 73.63, 300.01 87.67, 305.04 102.6 C310.07 117.52, 312.06 134.97, 312.21 150.73 C312.35 166.49, 310.85 182.25, 305.91 197.16 C300.97 212.06, 292.09 227.43, 282.56 240.17 C273.02 252.91, 261.47 264.53, 248.71 273.59 C235.95 282.65, 221.29 289.79, 206.01 294.52 C190.73 299.25, 173.03 301.64, 157.02 301.97 C141.01 302.29, 125.06 301.06, 109.95 296.47 C94.85 291.88, 79.72 283.6, 66.39 274.43 C53.05 265.27, 39.67 253.79, 29.94 241.48 C20.2 229.17, 12.89 215.31, 8 200.55 C3.11 185.79, 0.88 168.65, 0.59 152.93 C0.3 137.21, 1.49 121.17, 6.25 106.21 C11.02 91.25, 19.65 75.92, 29.17 63.16 C38.69 50.4, 50.54 38.92, 63.36 29.65 C76.17 20.39, 90.22 12.37, 106.06 7.57 C121.9 2.76, 149.09 1.65, 158.4 0.84 C167.72 0.03, 161.77 0.47, 161.94 2.71 M223.97 16.26 C238.49 20.43, 253.32 31.03, 264.8 42 C276.28 52.96, 285.15 68.05, 292.87 82.04 C300.59 96.03, 307.97 110.77, 311.11 125.94 C314.25 141.12, 314.18 157.69, 311.7 173.08 C309.23 188.48, 303.66 204.3, 296.28 218.32 C288.89 232.33, 278.36 245.8, 267.39 257.16 C256.42 268.51, 244.69 279.23, 230.44 286.47 C216.19 293.7, 197.81 298.18, 181.89 300.54 C165.97 302.9, 150.82 302.76, 134.91 300.64 C119.01 298.52, 101.32 294.55, 86.48 287.82 C71.64 281.09, 57.49 271.43, 45.88 260.25 C34.26 249.07, 24.12 234.65, 16.8 220.73 C9.49 206.81, 4.72 191.9, 1.99 176.73 C-0.73 161.56, -1.77 145.17, 0.45 129.71 C2.67 114.25, 7.82 98.1, 15.3 83.96 C22.78 69.83, 33.86 55.75, 45.33 44.88 C56.8 34.01, 70.04 25.88, 84.12 18.75 C98.2 11.62, 114.08 4.78, 129.83 2.11 C145.57 -0.56, 162.64 0.72, 178.58 2.74 C194.52 4.76, 218.11 11.59, 225.46 14.23 C232.8 16.87, 224.08 16.06, 222.64 18.6" stroke="#000000" stroke-width="1" fill="none"></path></g><g transform="translate(28.413482666015625 143.08984375) rotate(0 82 11.5)"><text x="0" y="18" font-family="Helvetica, Segoe UI Emoji" font-size="20px" fill="#000000" text-anchor="start" style="white-space: pre;" direction="ltr">whats measurable</text></g></svg>